PathFileType	4	(X/Y/Z)	OpenSim_Sub06_EMGStiffKnee_Accel.trc
DataRate	CameraRate	NumFrames	NumMarkers	Units	OrigDataRate	OrigDataStartFrame	OrigNumFrames
100	100	20	8	m	100	1	5432
Frame#	Time	torso_imu_offset_imu	pelvis_imu_offset_imu	tibia_r_imu_offset_imu	femur_r_imu_offset_imu	tibia_l_imu_offset_imu	femur_l_imu_offset_imu	toes_r_imu_offset_imu	toes_l_imu_offset_imu
				X1	Y1	Z1	X2	Y2	Z2	X3	Y3	Z3	X4	Y4	Z4	X5	Y5	Z5	X6	Y6	Z6	X7	Y7	Z7	X8		Y8	Z8	

1	0	9.33372700	1.84022400	5.94962400	8.29071600	-1.28312700	4.23251300	7.55976600	1.07492700	2.56345800	8.48877100	-4.16028300	4.59759900	10.05236200	-0.98917100	-0.76759600	9.25488300	-1.84284400	-3.22408800	12.11677000	6.10511300	1.11305000	5.06888200	1.52014000	11.06648300
2	0.01000000	9.17319500	1.76281100	6.06316900	8.23348300	-1.66771900	4.05682300	7.87460800	-0.25703100	2.93704300	8.33517100	-3.66162800	5.14970700	10.04445000	-0.44626300	-0.61475000	9.16126300	-1.74629600	-3.09591300	11.64276800	5.23777400	-0.18284600	4.95265200	1.41896600	11.09923900
3	0.02000000	9.05324100	1.68866400	5.94209700	8.20589100	-2.09807500	3.93692700	8.10217400	-1.28025000	3.06591700	8.28988400	-3.09689100	4.98454400	9.97501500	0.06928700	-0.43707700	8.99207800	-1.10975300	-3.08730300	11.43921700	4.59215800	-0.91189200	5.09005400	1.65438400	11.18342300
4	0.03000000	8.96783100	1.73892600	6.04390500	8.31099000	-2.52574800	3.87473600	8.33001400	-1.97437800	2.88637700	7.99938700	-2.78659900	4.44052200	9.72922800	0.43579100	-0.10440800	8.87672100	-0.60140900	-3.14170300	11.03104300	3.63116100	-1.18862200	4.73483100	1.65119300	11.34284700
5	0.04000000	8.93286000	1.79197800	6.17734400	8.43711700	-2.79576900	3.70039300	8.54748500	-2.27160300	2.68781300	7.69896100	-2.75917800	3.76167100	9.63318800	0.96815100	0.43409500	8.71723500	0.07488900	-3.08280600	10.67948500	2.32625400	-1.17814400	4.86821500	1.68578000	11.30224600
6	0.05000000	8.74191300	1.93477300	6.16708100	8.51922000	-3.04396300	3.61926100	8.37673800	-2.48478600	2.39316900	7.47006100	-2.98691200	3.14257500	9.66564300	1.39971400	0.87857900	8.66910600	0.53153100	-2.91722900	10.26557600	1.88882900	-0.59144600	5.24310700	1.36798300	11.06690100
7	0.06000000	8.48688300	2.07161400	6.18839800	8.44795400	-2.95072700	3.55624700	8.00314600	-2.42731900	2.46031700	7.43076800	-3.31119500	2.58230100	9.84816800	1.53612700	1.24916500	8.91125900	0.40498800	-2.68557500	10.24186000	2.29386200	0.49631600	5.27332800	1.04811800	11.11587100
8	0.07000000	8.50571200	2.16381500	6.22072700	8.35242000	-2.90697800	3.41227000	7.58324300	-1.84752800	2.88449200	7.13028100	-3.58543400	2.02651600	10.03452100	1.42913200	1.86820500	9.18047000	0.71318200	-2.51958900	10.18674900	3.39789800	1.67291200	5.16561800	0.47517200	11.30000300
9	0.08000000	8.39327400	2.17742700	6.21026000	8.14214700	-2.68096100	3.07884100	7.11064800	-0.55905600	3.16315400	6.60145500	-3.81818000	1.52837900	10.00899600	1.25085800	2.15756000	9.41101700	0.58701800	-2.31416700	9.20227200	2.09930200	3.31244700	4.54895900	0.86398800	11.47879300
10	0.09000000	8.26048900	2.15884900	6.15774300	7.99567000	-2.56140400	2.95308800	6.72756100	1.70321800	3.56727200	5.88230900	-3.88108800	1.35831700	10.06712000	1.60728300	2.11101900	9.66329300	0.50346000	-1.98767900	6.61382100	-15.11567800	-9.16728500	4.78597000	0.97732400	11.63922700
11	0.10000000	8.49554800	2.07206000	6.15789400	7.75917400	-2.31608100	3.31695200	7.26898800	3.46022800	3.50462600	5.36449800	-3.81699900	1.25104500	10.56507500	1.76958900	2.21919900	9.84370100	0.59918800	-1.69147200	2.01019400	27.72512300	18.58575600	4.96004600	0.42871600	11.39652200
12	0.11000000	9.44862700	2.03325600	6.21774100	7.60785900	-1.85699200	4.92263400	9.14099200	5.33408300	6.37682500	5.91110000	-3.59523300	2.11203500	11.79506800	1.63303100	2.16398000	10.23193200	0.89753800	-1.48298900	12.58080299	3.02892600	24.18824700	4.55687000	0.83833000	12.25571100
13	0.12000000	11.67102400	1.91493600	6.45636200	8.16168700	-0.66718800	8.27290600	13.95853400	6.50009800	13.16604600	9.64822500	-3.40139100	3.38950800	13.47605500	1.85353400	1.57206700	10.94072600	1.62501000	-1.99124900	49.88486500	13.09362800	28.33002400	4.13621700	1.50682300	12.91523300
14	0.13000000	15.47110600	1.66137300	7.02360600	10.30266600	1.93158200	11.64420700	26.97019400	5.56400900	13.11555200	21.94413000	-5.04621400	1.84802200	14.84882100	3.06087200	1.33524400	11.64764000	2.15867700	-2.77931200	-17.80411700	10.57115500	11.67993100	3.70927000	2.28283400	13.62739400
15	0.14000000	15.61761300	0.49386100	8.59166100	17.63090300	4.41704400	10.79545000	29.42965100	-0.91217200	4.72376700	35.57569900	-9.74159800	-4.13484400	14.85864500	4.52403000	2.52464900	11.99044500	2.59968000	-3.33920900	21.12954400	-21.98465400	5.75143200	4.82724500	2.87168400	13.35403800
16	0.15000000	12.52087800	-1.26614200	9.60862100	21.96097100	6.61609900	11.52910400	16.56801100	-1.26479200	4.22184800	30.04867500	-4.54896000	-6.49947300	13.39101000	4.19045000	4.17150500	11.05463700	2.21468400	-3.27606100	8.75899400	3.38968000	13.06852000	4.41391500	2.85398500	13.72565600
17	0.16000000	12.89439400	-1.58772500	9.70835500	14.08258700	5.59954000	11.66152100	8.30291900	0.45169500	7.01686800	16.29863500	-0.01369000	0.66285800	11.92870200	3.14007300	5.15332000	10.08914000	2.42914300	-2.76979000	7.55414300	2.27819500	9.23026100	4.18641900	1.60528000	13.79964200
18	0.17000000	13.00123000	-2.61656900	8.66723400	10.17646000	1.45226400	7.97021400	5.22880300	2.48823300	2.53228900	7.46202800	1.32960200	3.97598700	11.35332900	2.47173800	6.27573000	10.60246000	2.09187200	-2.98781400	3.72001900	-0.29314300	8.80656600	4.84525100	2.34416100	13.92064900
19	0.18000000	11.30036300	-2.96523500	7.07154700	8.85535800	-1.53329100	6.01390700	4.62141900	6.73744800	-2.90553600	3.73487900	1.30452400	2.38734900	11.59817100	0.99785700	7.73424600	11.91331900	1.04251400	-3.63715600	4.75285900	-2.62856100	8.47006600	4.34129900	2.16597200	14.60796300
20	0.19000000	10.24964600	-2.26666900	6.26832200	7.86139200	-3.75791500	4.98326600	3.80102500	8.15795400	-4.46743200	2.68591500	2.12241500	1.77406000	11.49723700	-0.51591000	7.22700700	12.87302200	-0.64408200	-3.73282600	3.29341900	-4.15130500	8.34399800	4.88495700	1.78723800	13.99054100
